<svg id="图层_1" data-name="图层 1" xmlns="http://www.w3.org/2000/svg" viewBox="0 0 174.28 174.28"><defs><style>.cls-1{fill:#4264fb;}</style></defs><path class="cls-1" d="M959.72,453.35a87.14,87.14,0,1,0,87.14,87.14A87.15,87.15,0,0,0,959.72,453.35Zm25.72,61.85c7,9.9,10.12,23.45,4.59,34.74-6.66,13.65-20.72,21.35-34.09,27.13,5.39-7.11,9.75-15.2,11-24.13,4-27-9.82-55-32.39-69.75C954.6,487.27,973.65,498.3,985.44,515.2Zm-28.92,7.27c6,14.86,7.21,32.85-3.06,54.6-2.77,1.47-9.24,3.32-18,2.53C955.32,567.7,960.08,545.45,956.52,522.47Zm43.36,60.86s-16.69,21.74-98.61,8.58c0,0,67.31,3.39,114.12-53.08Z" transform="translate(-872.58 -453.35)"/></svg>